#tb 0: 1/1000
0,          0,          0,        0,    60000, b339f4e563afadb25f43b8c05b12dc03
0,         33,         33,        0,    60000, 3bd5280e7fb42400085b0b1dbba1905e
0,         66,         66,        0,    60000, acf1c84cabff763fe2073d2c1f183bfc
0,        100,        100,        0,    60000, eaa4983b6baf907efb11d137644569d2
0,        133,        133,        0,    60000, 8a1871c8dc38a19dfd4ac571ad7f39be
0,        166,        166,        0,    60000, 0be539bd51f5f364828dd0abc70360be
0,        200,        200,        0,    60000, df60622d2c9f294f61d738be9e3bd16c
0,        233,        233,        0,    60000, 22b3f1d51ddf92c7d2add305ba0ef405
0,        266,        266,        0,    60000, 01ba29be721e64a5a50526de0797c7d3
0,        300,        300,        0,    60000, 7b7aa7fa0e58202b3104671375762587
